<svg width="127" height="16" viewBox="0 0 127 16" fill="none" xmlns="http://www.w3.org/2000/svg">
<path id="Shape Copy" fill-rule="evenodd" clip-rule="evenodd" d="M0 0.263672H4.28043V3.18904H0V0.263672ZM0 4.53027H4.28043V15.746H0V4.53027ZM6.73535 4.53105H10.7213V6.35809C11.3173 5.61178 11.9202 5.07846 12.5302 4.75811C13.1402 4.43776 13.8834 4.27759 14.7598 4.27759C15.9448 4.27759 16.872 4.63137 17.5416 5.33896C18.2112 6.04654 18.546 7.13959 18.546 8.61812V15.7467H14.2445V9.57916C14.2445 8.8751 14.1148 8.37698 13.8554 8.08479C13.596 7.79261 13.2314 7.64652 12.7616 7.64652C12.2428 7.64652 11.8221 7.84365 11.4996 8.23793C11.177 8.6322 11.0158 9.33978 11.0158 10.3607V15.7467H6.73535V4.53105ZM25.5839 4.53063H27.6242V7.67778H25.5839V15.7463H21.2929V7.67778H19.6943V4.53063H21.2929V4.0237C21.2929 3.56606 21.342 3.06266 21.4402 2.5135C21.5383 1.96433 21.7224 1.51549 21.9923 1.16698C22.2622 0.818468 22.6409 0.536847 23.1281 0.322108C23.6154 0.107368 24.3288 0 25.2684 0C26.0186 0 27.1088 0.0880067 28.5392 0.264023L28.0659 2.862C27.5541 2.77752 27.1404 2.73527 26.8249 2.73527C26.4393 2.73527 26.1623 2.8004 25.994 2.93065C25.8258 3.0609 25.7066 3.26684 25.6365 3.54846C25.6014 3.70336 25.5839 4.03074 25.5839 4.53063ZM28.0254 10.1706C28.0254 8.4597 28.6003 7.04983 29.7502 5.94093C30.9001 4.83203 32.453 4.27759 34.4092 4.27759C36.6459 4.27759 38.3356 4.92884 39.4784 6.23136C40.3969 7.28041 40.8562 8.57235 40.8562 10.1072C40.8562 11.8322 40.2865 13.2456 39.1472 14.3474C38.0078 15.4493 36.432 16.0002 34.4197 16.0002C32.6248 16.0002 31.1735 15.5426 30.0657 14.6273C28.7055 13.4937 28.0254 12.0082 28.0254 10.1706ZM32.3152 10.1598C32.3152 11.1595 32.5168 11.8988 32.92 12.3776C33.3231 12.8563 33.8297 13.0957 34.4397 13.0957C35.0567 13.0957 35.5632 12.8598 35.9594 12.3881C36.3555 11.9164 36.5536 11.1595 36.5536 10.1175C36.5536 9.14591 36.3538 8.4225 35.9541 7.94725C35.5545 7.47201 35.0602 7.23439 34.4712 7.23439C33.8472 7.23439 33.3319 7.47553 32.9252 7.95782C32.5186 8.4401 32.3152 9.17407 32.3152 10.1598ZM42.6689 4.53105H46.6654V6.16799C47.2403 5.48505 47.8205 4.99925 48.406 4.71059C48.9914 4.42192 49.6978 4.27759 50.5252 4.27759C51.4156 4.27759 52.1202 4.436 52.6391 4.75283C53.1579 5.06966 53.5821 5.54137 53.9117 6.16799C54.5847 5.43576 55.1982 4.93765 55.7521 4.67362C56.306 4.4096 56.9896 4.27759 57.803 4.27759C59.0019 4.27759 59.9379 4.63489 60.611 5.34952C61.2841 6.06414 61.6206 7.18183 61.6206 8.70261V15.7467H57.3297V9.35738C57.3297 8.85046 57.2315 8.47379 57.0352 8.22737C56.7477 7.84013 56.3902 7.64652 55.9625 7.64652C55.4576 7.64652 55.051 7.82957 54.7425 8.19568C54.434 8.5618 54.2797 9.14968 54.2797 9.95935V15.7467H49.9888V9.5686C49.9888 9.07576 49.9608 8.74133 49.9047 8.56532C49.8135 8.28369 49.6558 8.05663 49.4314 7.88414C49.207 7.71164 48.9441 7.62539 48.6426 7.62539C48.1518 7.62539 47.7487 7.81197 47.4332 8.18512C47.1176 8.55828 46.9599 9.1708 46.9599 10.0227V15.7467H42.6689V4.53105ZM67.7976 8.16405L63.7065 7.73105C63.8607 7.0129 64.0833 6.4479 64.3743 6.03602C64.6653 5.62415 65.0842 5.26684 65.6311 4.96409C66.0237 4.74583 66.5636 4.57686 67.2507 4.45717C67.9378 4.33748 68.681 4.27763 69.4803 4.27763C70.7634 4.27763 71.7941 4.3498 72.5723 4.49413C73.3506 4.63847 73.9991 4.93945 74.518 5.39709C74.8826 5.71392 75.17 6.16275 75.3804 6.74361C75.5907 7.32446 75.6959 7.8789 75.6959 8.40695V13.36C75.6959 13.8881 75.7292 14.3017 75.7958 14.6009C75.8624 14.9001 76.0079 15.2821 76.2323 15.7468H72.2147C72.0535 15.4581 71.9483 15.2381 71.8992 15.0867C71.8502 14.9353 71.8011 14.6977 71.752 14.3739C71.1911 14.916 70.6337 15.3032 70.0798 15.5356C69.3226 15.8453 68.4426 16.0002 67.44 16.0002C66.1078 16.0002 65.0965 15.6905 64.4059 15.0709C63.7152 14.4513 63.3699 13.6874 63.3699 12.7792C63.3699 11.9272 63.6188 11.2267 64.1166 10.6775C64.6144 10.1284 65.5329 9.72002 66.8721 9.45248C68.4777 9.12861 69.5189 8.90155 69.9957 8.7713C70.4724 8.64105 70.9772 8.47031 71.5101 8.2591C71.5101 7.73105 71.4014 7.36142 71.1841 7.1502C70.9667 6.93898 70.5846 6.83337 70.0377 6.83337C69.3366 6.83337 68.8107 6.94602 68.4602 7.17132C68.1867 7.34734 67.9659 7.67824 67.7976 8.16405ZM71.5104 10.4236C70.9214 10.6348 70.3079 10.8214 69.6699 10.9833C68.8005 11.2157 68.2501 11.4445 68.0187 11.6698C67.7803 11.9021 67.6611 12.1661 67.6611 12.4618C67.6611 12.7998 67.7786 13.0761 68.0135 13.2909C68.2483 13.5056 68.5936 13.613 69.0494 13.613C69.5262 13.613 69.9696 13.4968 70.3798 13.2645C70.79 13.0321 71.0809 12.7487 71.2527 12.4143C71.4245 12.0799 71.5104 11.6451 71.5104 11.11V10.4236ZM78.116 4.48905H82.102V6.31608C82.698 5.56978 83.3009 5.03646 83.9109 4.71611C84.5209 4.39576 85.2641 4.23559 86.1405 4.23559C87.3255 4.23559 88.2527 4.58937 88.9223 5.29696C89.5919 6.00454 89.9267 7.09758 89.9267 8.57612V15.7047H85.6252V9.53716C85.6252 8.8331 85.4955 8.33498 85.2361 8.04279C84.9767 7.7506 84.6121 7.60451 84.1423 7.60451C83.6235 7.60451 83.2028 7.80165 82.8803 8.19592C82.5577 8.5902 82.3965 9.29777 82.3965 10.3187V15.7047H78.116V4.48905ZM92.2225 0.263905H96.5029V3.18928H92.2225V0.263905ZM92.2225 4.53039H96.5029V15.7461H92.2225V4.53039ZM102.86 8.164L98.7692 7.731C98.9234 7.01286 99.146 6.44786 99.437 6.03598C99.728 5.6241 100.147 5.26679 100.694 4.96405C101.086 4.74579 101.626 4.57681 102.313 4.45712C103.001 4.33743 103.744 4.27759 104.543 4.27759C105.826 4.27759 106.857 4.34975 107.635 4.49409C108.413 4.63842 109.062 4.9394 109.581 5.39704C109.945 5.71387 110.233 6.16271 110.443 6.74356C110.653 7.32441 110.759 7.87885 110.759 8.4069V13.36C110.759 13.888 110.792 14.3016 110.858 14.6009C110.925 14.9001 111.071 15.282 111.295 15.7467H107.277C107.116 15.4581 107.011 15.238 106.962 15.0867C106.913 14.9353 106.864 14.6977 106.815 14.3738C106.254 14.9159 105.696 15.3032 105.142 15.5355C104.385 15.8453 103.505 16.0002 102.503 16.0002C101.171 16.0002 100.159 15.6904 99.4685 15.0708C98.7779 14.4513 98.4326 13.6874 98.4326 12.7791C98.4326 11.9272 98.6815 11.2267 99.1793 10.6775C99.6771 10.1283 100.596 9.71998 101.935 9.45243C103.54 9.12856 104.582 8.9015 105.058 8.77125C105.535 8.641 106.04 8.47027 106.573 8.25905C106.573 7.731 106.464 7.36137 106.247 7.15015C106.029 6.93893 105.647 6.83333 105.1 6.83333C104.399 6.83333 103.873 6.94598 103.523 7.17128C103.249 7.34729 103.029 7.6782 102.86 8.164ZM106.572 10.4236C105.983 10.6348 105.369 10.8214 104.731 10.9833C103.862 11.2157 103.312 11.4445 103.08 11.6698C102.842 11.9021 102.723 12.1661 102.723 12.4618C102.723 12.7998 102.84 13.0761 103.075 13.2909C103.31 13.5056 103.655 13.613 104.111 13.613C104.588 13.613 105.031 13.4968 105.441 13.2645C105.851 13.0321 106.142 12.7487 106.314 12.4143C106.486 12.0799 106.572 11.6451 106.572 11.11V10.4236ZM113.043 0.263672H117.418V8.24772L120.615 4.53028H125.884L121.877 8.45893L126.116 15.746H121.288L119.027 11.247L117.418 12.8311V15.746H113.043V0.263672Z" fill="#0098FF"/>
</svg>
